<svg width="48" height="48" viewBox="0 0 48 48" fill="none" xmlns="http://www.w3.org/2000/svg">
<g clip-path="url(#clip0_18_8)">
<path d="M39 0H9C4.029 0 0 4.032 0 9V39C0 43.971 4.029 48 9 48H39C43.971 48 48 43.971 48 39V9C48 4.032 43.971 0 39 0ZM42 39C42 40.659 40.659 42 39 42H9C7.344 42 6 40.659 6 39V9C6 7.344 7.344 6 9 6H39C40.659 6 42 7.344 42 9V39ZM31.377 15.51L20.772 26.115L16.527 21.873C15.357 20.7 13.458 20.7 12.285 21.873C11.112 23.046 11.112 24.945 12.285 26.115L18.651 32.478C19.821 33.651 21.72 33.651 22.893 32.478L35.619 19.752C36.792 18.579 36.792 16.683 35.619 15.51C34.446 14.337 32.55 14.337 31.377 15.51Z" fill="white"/>
</g>
<defs>
<clipPath id="clip0_18_8">
<rect width="48" height="48" fill="white"/>
</clipPath>
</defs>
</svg>
