<?xml version="1.0" ?><svg id="Outline" viewBox="0 0 512 512" xmlns="http://www.w3.org/2000/svg"><defs><style>.cls-1{fill:#262626;}</style></defs><path class="cls-1" d="M406,73.43H360V55.66a11.34,11.34,0,0,0-22.68,0V73.43H175.87V55.66a11.34,11.34,0,0,0-22.68,0V73.43H107.26A47.66,47.66,0,0,0,59.65,121V419.74a47.66,47.66,0,0,0,47.61,47.6H406a47.66,47.66,0,0,0,47.6-47.6V121A47.66,47.66,0,0,0,406,73.43ZM107.26,96.11h45.93v17.77a11.34,11.34,0,1,0,22.68,0V96.11H337.34v17.77a11.34,11.34,0,1,0,22.68,0V96.11H406A25,25,0,0,1,430.88,121v32H82.33V121A25,25,0,0,1,107.26,96.11ZM406,444.66H107.26a25,25,0,0,1-24.93-24.92V175.68H430.88V419.74A25,25,0,0,1,406,444.66Z"/><path class="cls-1" d="M179.5,210.75H120.41a11.33,11.33,0,0,0-11.34,11.33v59.1a11.34,11.34,0,0,0,11.34,11.34H179.5a11.34,11.34,0,0,0,11.34-11.34v-59.1A11.34,11.34,0,0,0,179.5,210.75Zm-11.34,59.09H131.75V233.42h36.41Z"/><path class="cls-1" d="M285.15,210.75H226.06a11.34,11.34,0,0,0-11.34,11.33v59.1a11.34,11.34,0,0,0,11.34,11.34h59.09a11.34,11.34,0,0,0,11.34-11.34v-59.1A11.33,11.33,0,0,0,285.15,210.75Zm-11.33,59.09H237.4V233.42h36.42Z"/><path class="cls-1" d="M391.59,210.75H332.5a11.34,11.34,0,0,0-11.34,11.33v59.1a11.34,11.34,0,0,0,11.34,11.34h59.09a11.34,11.34,0,0,0,11.34-11.34v-59.1A11.33,11.33,0,0,0,391.59,210.75Zm-11.33,59.09H343.84V233.42h36.42Z"/><path class="cls-1" d="M179.5,326.71H120.41a11.34,11.34,0,0,0-11.34,11.34v59.09a11.34,11.34,0,0,0,11.34,11.34H179.5a11.34,11.34,0,0,0,11.34-11.34V338.05A11.34,11.34,0,0,0,179.5,326.71ZM168.16,385.8H131.75V349.39h36.41Z"/><path class="cls-1" d="M285.15,326.71H226.06a11.34,11.34,0,0,0-11.34,11.34v59.09a11.34,11.34,0,0,0,11.34,11.34h59.09a11.34,11.34,0,0,0,11.34-11.34V338.05A11.34,11.34,0,0,0,285.15,326.71ZM273.82,385.8H237.4V349.39h36.42Z"/><path class="cls-1" d="M391.59,326.71H332.5a11.34,11.34,0,0,0-11.34,11.34v59.09a11.34,11.34,0,0,0,11.34,11.34h59.09a11.34,11.34,0,0,0,11.34-11.34V338.05A11.34,11.34,0,0,0,391.59,326.71ZM380.26,385.8H343.84V349.39h36.42Z"/></svg>